<svg xmlns="http://www.w3.org/2000/svg" xmlns:xlink="http://www.w3.org/1999/xlink" xmlns:svgjs="http://svgjs.com/svgjs" version="1.1" width="512" height="512" x="0" y="0" fill="#ffffff" viewBox="0 0 512 512" xml:space="preserve"><g><g xmlns="http://www.w3.org/2000/svg"><path d="m56 206a22.0248 22.0248 0 0 1 22-22h84a22.0248 22.0248 0 0 1 22 22v42h16v-42a38.0433 38.0433 0 0 0 -38-38h-2v-46a18.0206 18.0206 0 0 0 -18-18h-44a18.0206 18.0206 0 0 0 -18 18v46h-2a38.0433 38.0433 0 0 0 -38 38v50h16zm40-84a2.0023 2.0023 0 0 1 2-2h44a2.0023 2.0023 0 0 1 2 2v46h-48z" data-original="#000000"/><path d="m168 256v-30a18.0206 18.0206 0 0 0 -18-18h-60a18.0206 18.0206 0 0 0 -18 18v30h16v-30a2.0023 2.0023 0 0 1 2-2h60a2.0023 2.0023 0 0 1 2 2v30z"/><path d="m72 416a24 24 0 1 0 24 24 24.0272 24.0272 0 0 0 -24-24zm0 32a8 8 0 1 1 8-8 8.0092 8.0092 0 0 1 -8 8z" /><path d="m192.68 163.2285a8.004 8.004 0 0 0 4.79 4.3613l24 8a8.0008 8.0008 0 0 0 8.55-2.3222l41.98-47.9763v16.187l-54.5537 77.9338a7.9994 7.9994 0 0 0 -1.4463 4.5879v24h16v-21.4785l52.165-74.5215h37.8829l21.9521 73.1738v30.8262h16v-32a8.0078 8.0078 0 0 0 -.3374-2.2988l-23.6626-78.8753v-30.8259-.0234q0-.0788-.002-.1573l-.0008-.0378c-.0015-.0547-.0037-.1094-.0062-.1641l-.0038-.0715-.0059-.0933c-.0043-.0625-.0093-.1245-.0149-.1865l-.0015-.0173a7.9523 7.9523 0 0 0 -1.08-3.3245l-31.939-55.8931a7.9993 7.9993 0 0 0 -6.9459-4.0312h-96a8 8 0 0 0 -8 8v24a8.0006 8.0006 0 0 0 5.47 7.59l11.7158 3.9051-.6137 1.5344a7.9992 7.9992 0 0 0 5.4873 10.7314l1.963.4908-23.3331 52.5a8.0006 8.0006 0 0 0 -.0093 6.4768zm95.32-27.2285v-16h32v16zm-50.584-72h53.9414l22.857 40h-33.23l-54.1529-13.5381zm-29.416 10.2334v-10.2334h12.184l-5.0452 12.6128zm23.7809 33.9575 27.8338 6.9585-38.1318 43.5791-10.5937-3.5312z" data-original="#000000"/><path d="m494.6562 411.5625-45.0312-67.5469a17.9638 17.9638 0 0 0 -14.9771-8.0156h-10.6479v-248h-16v248h-16v-302a2.0023 2.0023 0 0 1 2-2h12a2.0023 2.0023 0 0 1 2 2v38h16v-38a18.0206 18.0206 0 0 0 -18-18h-12a18.0206 18.0206 0 0 0 -18 18v238h-88a8 8 0 0 0 -8-8h-136a8 8 0 0 0 -8 8h-112a8 8 0 0 0 -8 8v12a28.0314 28.0314 0 0 0 28 28h4v32h16v-32h72v96a8 8 0 0 0 8 8h96v-16h-88v-24h120v24h-16v16h24a8 8 0 0 0 8-8v-96h88v16h-10.6479a17.9638 17.9638 0 0 0 -14.9771 8.0156l-45.0312 67.5469a7.9982 7.9982 0 0 0 -1.3438 4.4375v64h-192.8458a55.9968 55.9968 0 0 0 -47.1542-95.43v-16.57h-16v21.4077a55.9975 55.9975 0 0 0 24 106.5923q2.0172 0 4-.1416v.1416h412a8 8 0 0 0 8-8v-72a7.9982 7.9982 0 0 0 -1.3438-4.4375zm-222.6562-131.5625v56h-120v-56zm-228 24a12.0134 12.0134 0 0 1 -12-12v-4h104v16zm108 64v-16h120v16zm136-64v-16h88v16zm-256 136a40 40 0 1 1 40 40 40.0455 40.0455 0 0 1 -40-40zm331.6875-87.1094a1.9971 1.9971 0 0 1 1.6646-.8906h69.2958a1.9971 1.9971 0 0 1 1.6646.8906l42.0729 63.1094h-156.7708zm84.3125 127.1094v-32h-16v32h-24v-32h-16v32h-24v-32h-16v32h-32v-48h160v48z" /><path d="m368 376h16v16h-16z" /><path d="m416 376h16v16h-16z" /><path d="m456 128h16v16h-16z" /><path d="m456 160h16v16h-16z" /><path d="m440 144h16v16h-16z" /><path d="m472 144h16v16h-16z" /><path d="m56 40h16v16h-16z" /><path d="m56 72h16v16h-16z" /><path d="m40 56h16v16h-16z" /><path d="m72 56h16v16h-16z" /></g></g></svg>

