<svg xmlns="http://www.w3.org/2000/svg" height="512px" viewBox="0 -48 480 480" width="512px" class=""> <g> <path d="m232 48h-80c-4.417969 0-8 3.582031-8 8v40h-16v-88c0-4.417969-3.582031-8-8-8h-96c-13.253906 0-24 10.746094-24 24v24c0 4.417969 3.582031 8 8 8 .265625 0 .527344 0 .800781-.039062l71.199219-7.121094v87.160156c0 4.417969 3.582031 8 8 8h56v32.40625c-50.984375 3.910156-91.550781 44.316406-95.664062 95.28125-4.109376 50.96875 29.457031 97.355469 79.152343 109.386719 49.695313 12.03125 100.761719-13.871094 120.414063-61.074219h96.097656v16h-80c-4.417969 0-8 3.582031-8 8v32c0 4.417969 3.582031 8 8 8h208c4.417969 0 8-3.582031 8-8v-32c0-4.417969-3.582031-8-8-8h-80v-16h80c4.417969 0 8-3.582031 8-8v-176c0-50.167969-106.617188-88-248-88zm-72 96h304v32h-304zm0-80h72c128.167969 0 217.414062 31.753906 230.320312 64h-302.320312zm-64-24c0-.136719-.070312-.257812-.078125-.390625-.011719-.136719.054687-.265625 0-.410156-.085937-.390625-.203125-.773438-.355469-1.144531-.101562-.515626-.257812-1.023438-.460937-1.511719-.230469-.421875-.496094-.824219-.800781-1.199219-.304688-.449219-.65625-.871094-1.046876-1.246094-.328124-.261718-.675781-.5-1.042968-.707031-.496094-.347656-1.035156-.632813-1.597656-.855469-.421876-.117187-.847657-.203125-1.28125-.253906-.433594-.136719-.882813-.230469-1.335938-.28125-.144531 0-.265625.070312-.40625.078125-.144531.011719-.257812-.054687-.394531 0l-71.199219 7.121094v-15.199219c0-4.417969 3.582031-8 8-8h88v88c0 4.417969 3.582031 8 8 8h24v16h-48zm56 328c-46.867188-.242188-85.324219-37.171875-87.457031-83.992188-2.132813-46.820312 32.804687-87.097656 79.457031-91.601562v24.144531c-28.675781 3.507813-51.445312 25.789063-55.574219 54.382813-4.128906 28.589844 11.410157 56.40625 37.921875 67.878906 26.511719 11.476562 57.425782 3.765625 75.445313-18.8125h28.511719c-15.019532 29.433594-45.261719 47.96875-78.304688 48zm312 0h-192v-16h192zm-88-32h-16v-16h16zm-178.078125-32c-.226563.035156-.445313.078125-.664063.136719-.546874.050781-1.082031.160156-1.601562.328125-.464844.132812-.917969.308594-1.351562.527344-.445313.246093-.863282.527343-1.257813.847656-.421875.332031-.808594.710937-1.160156 1.121094-.152344.183593-.367188.285156-.503907.488281-13.027343 18.6875-37.394531 25.644531-58.324218 16.652343-20.929688-8.992187-32.65625-31.457031-28.070313-53.769531 4.589844-22.316406 24.230469-38.328125 47.011719-38.332031 4.417969 0 8-3.582031 8-8v-32h304v40h-272c-2.121094 0-4.15625.84375-5.65625 2.34375l-30.253906 30.257812c-1.332032-.382812-2.707032-.582031-4.089844-.601562-8.835938 0-16 7.164062-16 16s7.164062 16 16 16 16-7.164062 16-16c-.019531-1.382812-.21875-2.757812-.601562-4.089844l27.914062-27.910156h268.6875v56zm0 0" data-original="#000000" class="active-path" data-old_color="#c8413a" fill="#c8413a"></path> </g> </svg> 