<svg version="1.1" fill="#ffffff" xmlns="http://www.w3.org/2000/svg" xmlns:xlink="http://www.w3.org/1999/xlink" x="0px" y="0px" viewBox="0 0 1000 1000" enable-background="new 0 0 1000 1000" xml:space="preserve">
<g><g transform="translate(0.000000,511.000000) scale(0.100000,-0.100000)"><path d="M3916.1,4811.6c-400.1-317.8-670-714-786.7-1161.9c-114.8-432.6-107.2-846.1,32.5-1732.3c93.8-610.6,116.8-1035.6,65.1-1232.7c-82.3-315.8-283.3-537.9-488.1-537.9c-105.3,0-157,32.5-218.2,139.7c-109.1,187.6-141.6,608.7-78.5,1031.7c26.8,185.7,26.8,210.6,0,264.2c-32.5,63.2-116.8,114.8-185.7,114.8c-72.7,0-158.9-67-298.6-229.7c-453.7-534-731.2-1412.6-731.2-2320v-185.7l-157,9.6c-400.1,26.8-759.9-155-905.4-461.3c-45.9-95.7-57.4-145.5-63.2-300.5c-19.1-446,179.9-738.9,886.3-1305.5C2137.9-4016.5,3248.1-4495.1,4634-4667.3c327.3-42.1,1274.9-59.3,1617.5-30.6c568.5,47.9,1012.6,139.7,1389.7,287.1c503.4,197.2,884.4,526.4,1071.9,926.4c103.4,224,137.8,394.3,137.8,712.1c1.9,310.1-26.8,501.5-112.9,777.1l-47.9,151.2l45.9,63.2c65.1,84.2,157,273.7,237.4,482.4c187.6,488.1,306.3,599.1,675.7,633.6c120.6,11.5,151.2,21.1,195.2,67c93.8,93.8,65.1,260.3-55.5,321.6c-93.8,47.9-424.9,1.9-608.7-84.2c-141.7-67-308.2-225.9-398.1-375.2c-38.3-67-107.2-212.5-149.3-323.5c-44-111-99.5-246.9-124.4-302.4l-44-101.4l-70.8,78.5c-91.9,101.4-348.4,269.9-505.4,331.1c-137.8,53.6-308.2,99.5-442.2,116.8l-88.1,13.4l-23,262.2C7298.5-238,7220,64.5,7047.7,426.2c-170.4,357.9-379,622.1-616.3,784.8c-112.9,78.5-151.2,93.8-222.1,93.8c-72.7,0-93.8-9.6-141.6-63.2c-53.6-59.3-55.5-68.9-55.5-258.4c0-467.1-164.6-982-384.7-1202.1c-78.5-78.5-174.2-101.5-224-51.7c-61.3,61.3-3.8,285.2,197.1,781c239.3,587.7,294.8,842.2,258.4,1171.5c-47.9,430.7-202.9,836.5-457.5,1192.5c-88.1,126.3-380.9,426.9-446,461.3c-82.3,42.1-160.8,32.5-229.7-28.7c-59.3-53.6-61.2-57.4-74.6-271.8c-17.2-248.8-53.6-392.4-124.4-476.6c-63.2-72.7-111-72.7-181.8,1.9c-149.3,158.9-218.2,438.3-214.4,869c1.9,344.6,38.3,597.2,149.3,1020.2c36.4,137.8,67,269.9,67,291c0,107.2-93.8,191.4-214.4,191.4C4082.7,4932.2,4032.9,4905.4,3916.1,4811.6z M3753.4,3934.9c-11.5-67-24.9-239.3-32.5-380.9c-36.4-796.3,214.4-1366.7,635.5-1454.8c264.2-55.5,516.8,132.1,627.8,467.1l44,128.3l57.4-82.3c306.3-432.6,438.3-989.6,333.1-1399.2c-19.1-80.4-105.3-321.6-189.5-534.1c-201-514.9-233.5-624-245-830.7c-9.6-158.9-5.7-185.7,36.4-279.5c114.8-248.8,449.8-359.9,704.4-231.6c134,67,296.7,235.4,402,419.2c99.5,174.2,220.1,514.9,250.7,715.9c13.4,78.5,28.7,151.2,36.4,158.9c21,23,147.4-158.9,250.8-361.8C6823.8-37,6931-461.9,6931-772v-147.4l-147.4-13.4c-379-30.6-895.8-172.3-1418.4-386.7c-430.7-178-746.5-275.6-1075.8-331.2c-828.8-141.6-1692.1-21.1-2411.8,338.8l-220.1,111l-17.2,151.2c-23,208.7,15.3,706.3,76.6,1004.9c49.8,245,139.7,539.8,224,725.5l45.9,105.3l23-178c67-530.2,296.7-832.7,664.2-874.8c283.3-34.5,627.8,176.1,809.7,495.8c82.3,143.6,149.3,361.8,176.1,560.8c28.7,225.9,1.9,537.9-99.5,1211.7c-42.1,277.6-84.2,616.4-95.7,752.3c-30.6,384.7,17.2,740.8,135.9,1020.2c44,105.3,157,298.6,166.5,289C3770.7,4059.3,3764.9,4001.9,3753.4,3934.9z M7568.4-1363.5c201-51.7,363.7-141.6,501.5-275.6l114.8-111l-67-36.4c-36.4-21.1-134-51.7-216.3-68.9c-166.5-38.3-235.4-88.1-254.6-189.5c-15.3-84.2,34.5-174.2,116.8-214.4c61.3-28.7,76.6-28.7,208.7,0c78.5,17.2,197.1,51.7,264.1,78.5c65.1,26.8,120.6,45.9,122.5,44c3.8-1.9,23-91.9,44-199.1c101.4-493.8,19.1-949.4-222.1-1230.8l-68.9-78.5l-42.1,103.3c-23,57.4-59.3,130.2-82.3,160.8c-135.9,191.4-411.5,323.5-698.7,335l-130.2,5.7l15.3,67c7.6,36.4,15.3,153.1,15.3,258.4c0,155-7.7,208.7-42.1,283.3c-55.5,122.5-216.3,285.2-331.1,340.7c-53.6,24.9-95.7,55.5-95.7,67c0,11.5,15.3,55.5,32.5,95.7c47.9,112.9,44,375.2-7.7,490l-42.1,90l61.3,11.5c149.3,23,189.5,24.9,415.4,19.1C7338.7-1323.3,7468.8-1338.6,7568.4-1363.5z M1194.2-1451.6c59.3-15.3,243.1-95.7,409.6-179.9c689.1-342.6,1253.8-480.4,1979.2-480.4c685.3,0,1138.9,93.8,1854.8,380.9c398.1,160.8,719.7,269.9,790.5,269.9c101.4,0,168.4-155,139.7-319.7c-11.5-57.4-45.9-103.4-166.5-220.1c-141.7-135.9-151.2-151.2-151.2-225.9c0-63.2,11.5-91.9,59.3-137.8c57.4-57.4,61.3-59.3,204.8-49.8c181.8,13.4,312-17.2,386.7-90c160.8-155,111-421.1-126.3-677.6c-82.3-90-109.1-134-116.8-193.3c-9.6-67-3.8-82.3,57.4-143.6c82.3-82.3,153.1-88,302.4-21c329.2,143.6,708.2,105.3,836.5-86.1c59.4-86.1,49.8-216.3-21-310.1c-42.1-55.5-84.2-76.6-285.2-143.6c-430.7-143.6-865.2-208.6-1508.3-227.8c-1533.2-44-2833,310.1-4000.6,1091.1c-425,285.2-1014.5,763.8-1150.4,936c-179.9,227.8-233.5,447.9-151.2,616.4C635.3-1459.2,899.4-1375,1194.2-1451.6z"/></g></g>
</svg>