<svg xmlns="http://www.w3.org/2000/svg" fill="#ffffff" width="50" height="50" viewBox="0 0 50 50">
    <path style="text-indent:0;text-align:start;line-height:normal;text-transform:none;block-progression:tb;-inkscape-font-specification:Bitstream Vera Sans" d="M 0 1 L 0 2 L 0 25 L 0 26 L 1 26 L 3 26 L 3 48 L 3 49 L 4 49 L 46 49 L 47 49 L 47 48 L 47 26 L 49 26 L 50 26 L 50 25 L 50 2 L 50 1 L 49 1 L 1 1 L 0 1 z M 2 3 L 48 3 L 48 24 L 46.1875 24 L 45.78125 24 L 34.53125 24 L 25.84375 10.46875 L 25 9.15625 L 24.15625 10.46875 L 15.46875 24 L 4.1875 24 A 1.0001 1.0001 0 0 0 3.78125 24 L 2 24 L 2 3 z M 25 12.84375 L 33.15625 25.53125 L 33.46875 26 L 34 26 L 45 26 L 45 47 L 30.9375 47 L 30.9375 36 C 30.9375 32.729143 28.270857 30.0625 25 30.0625 C 21.729143 30.0625 19.0625 32.729143 19.0625 36 L 19.0625 47 L 5 47 L 5 26 L 16 26 L 16.53125 26 L 16.84375 25.53125 L 25 12.84375 z M 9 30 L 9 31 L 9 41 L 9 42 L 10 42 L 16 42 L 17 42 L 17 41 L 17 31 L 17 30 L 16 30 L 10 30 L 9 30 z M 33 30 L 33 31 L 33 41 L 33 42 L 34 42 L 40 42 L 41 42 L 41 41 L 41 31 L 41 30 L 40 30 L 34 30 L 33 30 z M 25 31.9375 C 27.253143 31.9375 29.0625 33.746857 29.0625 36 L 29.0625 47 L 20.9375 47 L 20.9375 36 C 20.9375 33.746857 22.746857 31.9375 25 31.9375 z M 11 32 L 15 32 L 15 40 L 11 40 L 11 32 z M 35 32 L 39 32 L 39 40 L 35 40 L 35 32 z" overflow="visible" enable-background="accumulate" font-family="Bitstream Vera Sans"/>
</svg>
