<svg xmlns="http://www.w3.org/2000/svg" xmlns:xlink="http://www.w3.org/1999/xlink" id="Capa_1" x="0px" y="0px" viewBox="0 0 479.999 479.999" style="enable-background:new 0 0 479.999 479.999;" xml:space="preserve" width="512px" height="512px" class=""><g><g> <g> <path d="M328.002,167.999c-0.026-22.08-17.92-39.974-40-40h-100c-10.068,0.016-19.546,4.755-25.6,12.8l-16.8,22.192l-21.6,29.008 h-36v-64h-16v64h-8c-4.418,0-8,3.582-8,8v32c0,4.418,3.582,8,8,8h8v176h-56v16h12.896L16.41,469.471 c-1.396,4.192,0.87,8.722,5.062,10.118c0.816,0.272,1.67,0.41,2.53,0.41h112c4.418,0.001,8.001-3.58,8.002-7.998 c0-0.86-0.138-1.714-0.41-2.53l-12.488-37.472h12.896v-16h-56v-176h55.768c7.723-0.003,14.972-3.721,19.48-9.992l24.256-33.296 l0.056-0.112l0.088-0.08l4.352-6.4v17.368l-5.04,42.912l-5.04,42.808l-6.92,58.792h17v86.112l-15.16,30.312 c-1.975,3.952-0.372,8.757,3.58,10.732c1.112,0.555,2.337,0.844,3.58,0.844h112c4.418,0.024,8.02-3.538,8.044-7.956 c0.007-1.256-0.282-2.496-0.844-3.62l-15.2-30.312v-86.112h17l-3.768-32h26.768V167.999z M268.53,143.999h3.472v24H254.13 L268.53,143.999z M249.874,143.999l-9.872,16.448l-9.872-16.448H249.874z M208.002,143.999h3.472l14.4,24h-17.872V143.999z M208.002,183.999h64v16h-64.048L208.002,183.999z M197.818,295.063l1.736-14.8l7.56-64.264h65.776l9.296,79.064 c0.517,4.388-2.621,8.364-7.009,8.881c-0.31,0.036-0.622,0.055-0.935,0.055h-68.48c-4.418-0.001-8-3.583-7.999-8.001 C197.763,295.686,197.781,295.374,197.818,295.063z M114.234,431.999l10.672,32h-20.904v-16h-16v16h-16v-16h-16v16H35.098 l10.672-32H114.234z M150.282,220.647c-1.502,2.104-3.927,3.352-6.512,3.352H72.002v-16h56c2.518,0,4.889-1.186,6.4-3.2 l18.952-25.432l16.8,13.992L150.282,220.647z M192.002,167.999c-2.639,0-5.109,1.302-6.6,3.48l-5.992,8.744l-8.048-6.704 l-8.376-6.984l12.216-16.136c3.03-4.019,7.767-6.387,12.8-6.4h4V167.999z M232.002,463.999h-35.056l8-16h27.056V463.999z M232.002,431.999h-24v-80h24V431.999z M248.002,463.999v-16h27.056l8,16H248.002z M248.002,431.999v-80h24v80H248.002z M193.002,335.999l2.176-18.544c3.287,1.647,6.908,2.518,10.584,2.544h68.48c3.68-0.024,7.305-0.897,10.592-2.552l2.168,18.552 H193.002z M312.002,303.999h-9.136l-14.864-96.616v-7.384h24V303.999z M312.002,183.999h-24v-40c13.255,0,24,10.745,24,24V183.999 z" data-original="#000000" class="active-path" data-old_color="#c8413a" fill="#ffffff"></path> </g> </g><g> <g> <path d="M280.443,0.001c-12.244-0.084-23.463,6.826-28.897,17.798c-3.737-1.171-7.628-1.778-11.544-1.8 c-22.08,0.026-39.974,17.92-40,40v16c0,22.091,17.909,40,40,40c0.029,0,0.059,0,0.088,0c1.272,0,2.544-0.064,3.816-0.184 c20.769-2.53,36.315-20.271,36.096-41.192v-6.624c17.673,0.122,32.098-14.106,32.22-31.779 C312.343,14.548,298.115,0.123,280.443,0.001z M216.002,55.999c0-13.255,10.745-24,24-24c6.444-0.018,12.612,2.614,17.056,7.28 c-0.184,0.152-0.344,0.336-0.536,0.496c-2.689,2.226-5.536,4.253-8.52,6.064c-0.688,0.424-1.416,0.8-2.12,1.2 c-2.48,1.424-5.016,2.736-7.584,3.936c-0.88,0.408-1.744,0.8-2.624,1.208c-3.16,1.376-6.344,2.656-9.44,3.736 c-0.168,0.064-0.328,0.104-0.496,0.16c-3.048,1.056-5.984,1.944-8.8,2.728l-0.936,0.264V55.999z M242.402,95.887 c-6.768,0.704-13.514-1.527-18.528-6.128c-4.075-3.716-6.752-8.717-7.584-14.168l0.44-0.128c3.352-0.848,6.832-1.84,10.4-2.968 c0.888-0.28,1.76-0.592,2.648-0.888c2.936-0.984,5.872-2.072,8.8-3.272c0.896-0.36,1.784-0.696,2.68-1.08 c3.64-1.6,7.2-3.28,10.736-5.2c0.656-0.36,1.264-0.8,1.912-1.144c2.9-1.669,5.709-3.49,8.416-5.456 c0.52-0.384,1.112-0.672,1.6-1.064c0,0.536,0.056,1.072,0.056,1.6l0.024,14.632C264.275,83.312,254.979,94.185,242.402,95.887z M280.002,47.999c-0.304,0-0.632-0.072-0.944-0.088c-1.836-8.778-6.594-16.674-13.496-22.4c2.528-5.731,8.177-9.451,14.44-9.512 c8.837,0,16,7.163,16,16S288.838,47.999,280.002,47.999z" data-original="#000000" class="active-path" data-old_color="#c8413a" fill="#ffffff"></path> </g> </g><g> <g> <path d="M400.002,303.999c-35.346,0-64,28.654-64,64v8c0.036,0.234,0.084,0.467,0.144,0.696c-0.012,0.208-0.012,0.416,0,0.624 l16,96c0.643,3.842,3.96,6.663,7.856,6.68h80c3.908-0.001,7.243-2.826,7.888-6.68l16-96c0.012-0.208,0.012-0.416,0-0.624 c0.049-0.23,0.087-0.462,0.112-0.696v-8C464.002,332.653,435.348,303.999,400.002,303.999z M433.226,463.999h-66.448l-13.328-80 h93.104L433.226,463.999z M352.002,367.999c0.026-26.499,21.501-47.974,48-48c26.499,0.026,47.974,21.501,48,48H352.002z" data-original="#000000" class="active-path" data-old_color="#c8413a" fill="#ffffff"></path> </g> </g></g> </svg> 