<?xml version="1.0"?>
<svg xmlns="http://www.w3.org/2000/svg" xmlns:xlink="http://www.w3.org/1999/xlink" xmlns:svgjs="http://svgjs.com/svgjs" version="1.1" width="512" height="512" x="0" y="0" viewBox="0 0 496 496" style="enable-background:new 0 0 512 512" xml:space="preserve" class=""><g>
<g xmlns="http://www.w3.org/2000/svg">
	<g>
		<g>
			<path d="M88,48c-13.68,0-24,17.192-24,40s10.32,40,24,40s24-17.192,24-40S101.68,48,88,48z M88,112c-1.992,0-8-8.512-8-24     s6.008-24,8-24s8,8.512,8,24S89.992,112,88,112z" data-original="#000000" style="" class=""/>
			<path d="M408,0H88C56.6,0,32,38.656,32,88s24.6,88,56,88h320c15.824,0,29.912-9.832,40-25.88V168c0,17.673-14.327,32-32,32H288     c-23.397,0.043-43.361,16.934-47.28,40H232c-4.418,0-8,3.582-8,8v24h-8c-4.418,0-8,3.582-8,8v208c0,4.418,3.582,8,8,8h64     c4.418,0,8-3.582,8-8V280c0-4.418-3.582-8-8-8h-8v-24c0-4.418-3.582-8-8-8h-6.864c3.637-14.086,16.317-23.945,30.864-24h128     c26.499-0.026,47.974-21.501,48-48V88C464,38.656,439.4,0,408,0z M240,256h16v16h-16V256z M272,288v192h-48V288H272z M88,160     c-21.68,0-40-32.976-40-72s18.32-72,40-72s40,32.976,40,72S109.68,160,88,160z M408,160H160.52     c16.213-20.405,24.547-45.96,23.48-72h-16c0,39.024-18.32,72-40,72h-7.48c16.213-20.405,24.547-45.96,23.48-72     c1.067-26.04-7.267-51.595-23.48-72H368c21.68,0,40,32.976,40,72h16c1.067-26.04-7.267-51.595-23.48-72H408     c21.68,0,40,32.976,40,72S429.68,160,408,160z" data-original="#000000" style="" class=""/>
			<rect x="80" y="192" width="16" height="16" data-original="#000000" style="" class=""/>
			<rect x="80" y="224" width="16" height="16" data-original="#000000" style="" class=""/>
			<rect x="64" y="208" width="16" height="16" data-original="#000000" style="" class=""/>
			<rect x="96" y="208" width="16" height="16" data-original="#000000" style="" class=""/>
			<rect x="320" y="432" width="16" height="16" data-original="#000000" style="" class=""/>
			<rect x="320" y="464" width="16" height="16" data-original="#000000" style="" class=""/>
			<rect x="304" y="448" width="16" height="16" data-original="#000000" style="" class=""/>
			<rect x="336" y="448" width="16" height="16" data-original="#000000" style="" class=""/>
			<rect x="240" y="448" width="16" height="16" data-original="#000000" style="" class=""/>
		</g>
	</g>
</g>
<g xmlns="http://www.w3.org/2000/svg">
</g>
<g xmlns="http://www.w3.org/2000/svg">
</g>
<g xmlns="http://www.w3.org/2000/svg">
</g>
<g xmlns="http://www.w3.org/2000/svg">
</g>
<g xmlns="http://www.w3.org/2000/svg">
</g>
<g xmlns="http://www.w3.org/2000/svg">
</g>
<g xmlns="http://www.w3.org/2000/svg">
</g>
<g xmlns="http://www.w3.org/2000/svg">
</g>
<g xmlns="http://www.w3.org/2000/svg">
</g>
<g xmlns="http://www.w3.org/2000/svg">
</g>
<g xmlns="http://www.w3.org/2000/svg">
</g>
<g xmlns="http://www.w3.org/2000/svg">
</g>
<g xmlns="http://www.w3.org/2000/svg">
</g>
<g xmlns="http://www.w3.org/2000/svg">
</g>
<g xmlns="http://www.w3.org/2000/svg">
</g>
</g></svg>

