<svg xmlns="http://www.w3.org/2000/svg" xmlns:xlink="http://www.w3.org/1999/xlink" xmlns:svgjs="http://svgjs.com/svgjs" version="1.1" width="512" height="512" x="0" y="0" viewBox="0 0 512 512.001" style="enable-background:new 0 0 512 512" xml:space="preserve"><g><path xmlns="http://www.w3.org/2000/svg" d="m74.394531 208.4375h12.472657c4.148437 0 7.515624-3.363281 7.515624-7.515625 0-4.148437-3.367187-7.511719-7.515624-7.511719h-12.472657c-4.152343 0-7.515625 3.363282-7.515625 7.511719 0 4.152344 3.363282 7.515625 7.515625 7.515625zm0 0" fill="#ffffff" data-original="#000000" style=""></path><path xmlns="http://www.w3.org/2000/svg" d="m86.867188 317.257812h-12.472657c-4.152343 0-7.515625 3.363282-7.515625 7.511719 0 4.152344 3.363282 7.515625 7.515625 7.515625h12.472657c4.148437 0 7.515624-3.363281 7.515624-7.515625 0-4.148437-3.367187-7.511719-7.515624-7.511719zm0 0" fill="#ffffff" data-original="#000000" style=""></path><path xmlns="http://www.w3.org/2000/svg" d="m87.742188 428.859375c-26.539063 0-46.550782 11.113281-46.550782 25.855469 0 14.742187 20.011719 25.859375 46.550782 25.859375 26.539062 0 46.550781-11.117188 46.550781-25.859375 0-14.742188-20.011719-25.855469-46.550781-25.855469zm0 36.683594c-20.476563 0-31.523438-7.6875-31.523438-10.828125 0-3.144532 11.046875-10.828125 31.523438-10.828125 20.476562 0 31.523437 7.683593 31.523437 10.828125 0 3.140625-11.046875 10.828125-31.523437 10.828125zm0 0" fill="#ffffff" data-original="#000000" style=""></path><path xmlns="http://www.w3.org/2000/svg" d="m114.886719 71.175781 7.855469 4.296875c6.585937 3.601563 11.96875 8.984375 15.570312 15.570313l4.292969 7.851562c3.355469 6.132813 9.777343 9.9375 16.761719 9.9375 6.988281 0 13.40625-3.808593 16.761718-9.9375l4.292969-7.851562c3.601563-6.585938 8.988281-11.96875 15.574219-15.570313l7.851562-4.296875c6.128906-3.351562 9.9375-9.773437 9.9375-16.757812 0-6.988281-3.808594-13.410157-9.9375-16.761719l-7.851562-4.292969c-6.585938-3.601562-11.972656-8.988281-15.574219-15.574219l-4.292969-7.851562c-3.355468-6.128906-9.773437-9.9375-16.761718-9.9375-6.984376 0-13.40625 3.808594-16.761719 9.9375l-4.292969 7.851562c-3.601562 6.585938-8.984375 11.972657-15.570312 15.574219l-7.855469 4.292969c-6.128907 3.351562-9.933594 9.773438-9.933594 16.761719 0 6.984375 3.804687 13.40625 9.933594 16.757812zm7.210937-20.332031 7.855469-4.296875c9.109375-4.984375 16.558594-12.433594 21.542969-21.546875l4.296875-7.851562c1.046875-1.914063 2.847656-2.121094 3.574219-2.121094.726562 0 2.527343.207031 3.574218 2.121094l4.292969 7.851562c4.984375 9.113281 12.4375 16.5625 21.546875 21.546875l7.851562 4.296875c1.914063 1.042969 2.121094 2.847656 2.121094 3.574219 0 .726562-.207031 2.527343-2.121094 3.574219l-7.851562 4.292968c-9.113281 4.984375-16.5625 12.433594-21.546875 21.546875l-4.292969 7.851563c-1.046875 1.914062-2.847656 2.121094-3.574218 2.121094-.726563 0-2.53125-.207032-3.574219-2.121094l-4.296875-7.851563c-4.984375-9.113281-12.433594-16.5625-21.546875-21.546875l-7.851563-4.292968c-1.914062-1.046876-2.121094-2.851563-2.121094-3.574219.003907-.726563.207032-2.527344 2.121094-3.574219zm0 0" fill="#ffffff" data-original="#000000" style=""></path><path xmlns="http://www.w3.org/2000/svg" d="m89.417969 285.425781c14.722656 0 26.703125-10.128906 26.703125-22.578125 0-12.449218-11.980469-22.578125-26.703125-22.578125-14.726563 0-26.707031 10.128907-26.707031 22.578125 0 12.445313 11.980468 22.578125 26.707031 22.578125zm0-30.128906c6.878906 0 11.675781 3.976563 11.675781 7.546875 0 3.574219-4.796875 7.550781-11.675781 7.550781-6.882813 0-11.679688-3.976562-11.679688-7.550781 0-3.570312 4.796875-7.546875 11.679688-7.546875zm0 0" fill="#ffffff" data-original="#000000" style=""></path><path xmlns="http://www.w3.org/2000/svg" d="m448.957031 300.722656c13.128907 0 23.804688-10.679687 23.804688-23.808594 0-13.125-10.675781-23.804687-23.804688-23.804687h-11.914062c-4.152344 0-7.515625 3.363281-7.515625 7.515625 0 4.148438 3.363281 7.511719 7.515625 7.511719h11.914062c4.839844 0 8.777344 3.9375 8.777344 8.777343 0 4.84375-3.9375 8.78125-8.777344 8.78125h-37.289062v-48.527343h37.289062c13.128907 0 23.804688-10.679688 23.804688-23.808594 0-13.125-10.675781-23.804687-23.804688-23.804687h-41.433593c-2.261719-4.421876-5.375-8.375-9.171876-11.609376l4.613282-2.523437c7.246094-3.960937 11.570312-11.257813 11.570312-19.511719 0-8.261718-4.324218-15.554687-11.570312-19.519531l-9.980469-5.457031c-8.714844-4.765625-15.839844-11.890625-20.601563-20.601563l-5.460937-9.984375c-3.960937-7.242187-11.257813-11.570312-19.515625-11.570312s-15.554688 4.324218-19.515625 11.570312l-5.460937 9.984375c-4.761719 8.710938-11.886719 15.835938-20.601563 20.601563l-9.980469 5.457031c-7.246094 3.964844-11.570312 11.257813-11.570312 19.519531 0 4.832032 1.492187 9.332032 4.175781 13.035156h-109.027344c-.613281-15.382812-10.125-29.539062-26.992187-40.003906-16.324219-10.128906-37.878906-15.707031-60.691406-15.707031-22.808594 0-44.363282 5.578125-60.691407 15.707031-17.441406 10.824219-27.050781 25.589844-27.050781 41.578125v284.195313c0 15.992187 9.609375 30.757812 27.050781 41.578125 16.328125 10.128906 37.882813 15.707031 60.691407 15.707031h286.144531c14.652343 0 27.371093-8.390625 33.636719-20.609375h41.433593c13.125 0 23.804688-10.679687 23.804688-23.808594 0-13.125-10.679688-23.804687-23.804688-23.804687h-37.289062v-15.945313h37.289062c13.125 0 23.804688-10.679687 23.804688-23.804687 0-13.128906-10.679688-23.808594-23.804688-23.808594h-37.289062v-15.941406h37.289062c13.125 0 23.804688-10.679688 23.804688-23.804688 0-13.128906-10.679688-23.808594-23.804688-23.808594h-37.289062v-15.941406zm0-96.140625c4.839844 0 8.777344 3.9375 8.777344 8.777344 0 4.84375-3.9375 8.78125-8.777344 8.78125h-37.289062s-.027344-16.847656-.066407-17.558594zm-149.898437-55.007812 9.980468-5.457031c11.238282-6.144532 20.429688-15.335938 26.578126-26.578126l5.457031-9.980468c1.855469-3.386719 5.046875-3.753906 6.332031-3.753906s4.476562.367187 6.332031 3.753906l5.457031 9.980468c6.148438 11.242188 15.339844 20.433594 26.578126 26.578126l9.980468 5.457031c3.386719 1.855469 3.753906 5.046875 3.753906 6.332031s-.363281 4.480469-3.753906 6.332031l-9.980468 5.457031c-11.238282 6.148438-20.429688 15.339844-26.574219 26.578126l-5.460938 9.980468c-1.851562 3.386719-5.042969 3.753906-6.332031 3.753906-1.285156 0-4.476562-.367187-6.328125-3.753906l-5.460937-9.980468c-6.148438-11.242188-15.335938-20.429688-26.578126-26.578126l-9.980468-5.457031c-3.386719-1.855469-3.753906-5.046875-3.753906-6.332031s.363281-4.476562 3.753906-6.332031zm18.027344 44.023437c2 2.453125 9.402343 21.925782 18.804687 26.277344v277.097656h-18.804687zm-302.054688 261.117188c0-15.792969 16.003906-30.660156 40.773438-37.867188 3.984374-1.160156 6.277343-5.332031 5.117187-9.316406s-5.328125-6.273438-9.316406-5.113281c-15.242188 4.4375-27.707031 11.347656-36.574219 19.867187v-251.765625c0-22.90625 33.296875-42.257812 72.714844-42.257812 39.414062 0 72.710937 19.351562 72.710937 42.257812v251.863281c-3.453125-3.316406-7.464843-6.417968-12.023437-9.246093-16.324219-10.128907-37.878906-15.707031-60.691406-15.707031-4.148438 0-7.511719 3.363281-7.511719 7.511718 0 4.152344 3.363281 7.515625 7.511719 7.515625 39.417968 0 72.714843 19.351563 72.714843 42.257813s-33.296875 42.257812-72.714843 42.257812c-39.414063 0-72.710938-19.351562-72.710938-42.257812zm133.402344 41.578125c17.445312-10.820313 27.050781-25.585938 27.050781-41.578125v-270.742188h126.574219v313h-154.773438c.382813-.226562.773438-.445312 1.148438-.679687zm248.207031-22.078125c0 12.546875-10.207031 22.757812-22.753906 22.757812h-22.96875v-274.210937c6.785156-1.046875 12.613281-5.097657 16.003906-11.292969 0 0 6.964844-17.558594 17.660156-24.828125 7.328125 3.910156 12.058594 11.605469 12.058594 20.085937zm52.316406-15.410156c4.839844 0 8.777344 3.9375 8.777344 8.777343 0 4.839844-3.9375 8.777344-8.777344 8.777344h-37.351562c.039062-.707031.0625-17.554687.0625-17.554687zm0-63.554688c4.839844 0 8.777344 3.9375 8.777344 8.777344s-3.9375 8.777344-8.777344 8.777344h-37.289062v-17.554688zm0-63.558594c4.839844 0 8.777344 3.9375 8.777344 8.78125 0 4.839844-3.9375 8.777344-8.777344 8.777344h-37.289062v-17.554688h37.289062zm0 0" fill="#ffffff" data-original="#000000" style=""></path></g></svg> 