<svg xmlns="http://www.w3.org/2000/svg" xmlns:xlink="http://www.w3.org/1999/xlink" version="1.1" id="Layer_1_1_" x="0px" y="0px" viewBox="0 0 64 64" style="enable-background:new 0 0 64 64;" xml:space="preserve" width="512" height="512">
<linearGradient id="g" gradientUnits="userSpaceOnUse" x1="32" y1="1" x2="32" y2="63" gradientTransform="matrix(1 0 0 -1 0 64)"><stop offset="0" style="stop-color:#005d85"/><stop offset="1" style="stop-color:#29b1d9"/></linearGradient>
<path style="fill:url(#g);" d="M35,24v-4h4v-6h-4v-4h-6v4h-4v6h4v4H35z M27,18v-2h4v-4h2v4h4v2h-4v4h-2v-4H27z   M40.189,34.558l-0.836,0.546l3.276,5.025l0.838-0.548C49.436,35.68,53,29.107,53,22c0-11.579-9.42-21-21-21s-21,9.421-21,21  c0,7.107,3.564,13.68,9.533,17.581l0.838,0.548l3.276-5.025l-0.836-0.546C19.546,31.771,17,27.076,17,22c0-8.271,6.729-15,15-15  s15,6.729,15,15C47,27.076,44.454,31.771,40.189,34.558z M49,22c0-9.374-7.626-17-17-17s-17,7.626-17,17  c0,5.421,2.56,10.456,6.896,13.661l-1.093,1.677C15.899,33.758,13,28.096,13,22c0-10.477,8.523-19,19-19s19,8.523,19,19  c0,6.096-2.899,11.758-7.803,15.338l-1.093-1.677C46.44,32.456,49,27.421,49,22z M61,44h-8c-1.103,0-2,0.897-2,2v2h-4.789  c-0.595,0-1.17-0.174-1.664-0.504l-7.572-5.048C37.634,41.489,38,40.349,38,39.146c0-0.904-0.214-1.81-0.618-2.618L32,25.764  l-5.382,10.764C26.214,37.336,26,38.241,26,39.146c0,0.086,0.019,0.17,0.022,0.256C25.394,40.118,25,41.045,25,42.07v0.286  c0,1.364,0.678,2.631,1.812,3.387l6.618,4.412l-0.966,0.966C31.898,51.688,31.145,52,30.343,52h-8.808l-1.565-2.349  c-1.339-2.009-2.22-4.234-2.617-6.617C17.06,41.276,15.553,40,13.771,40h-0.14C11.629,40,10,41.629,10,43.632  c0,0.336,0.047,0.671,0.14,0.997l0.838,2.933L7.527,44.11C6.811,43.395,5.859,43,4.797,43c-1.015,0-1.968,0.396-2.686,1.112  C1.395,44.83,1,45.784,1,46.849c0,1.01,0.393,1.958,1.104,2.67l7.905,7.904c0.98,0.98,2.216,1.642,3.576,1.914l12.637,2.527  C26.674,61.954,27.136,62,27.594,62h23.685c0.347,0.595,0.985,1,1.722,1h8c1.103,0,2-0.897,2-2V46C63,44.897,62.104,44,61,44z   M32,30.236l3.593,7.186C35.859,37.954,36,38.551,36,39.146c0,0.801-0.261,1.548-0.703,2.184l-3.969-2.646  C30.657,38.236,29.876,38,29.071,38c-0.315,0-0.619,0.044-0.914,0.112c0.066-0.236,0.14-0.471,0.25-0.69L32,30.236z M12.063,44.081  C12.021,43.934,12,43.783,12,43.632C12,42.732,12.732,42,13.631,42h0.14c0.801,0,1.478,0.573,1.609,1.363  c0.444,2.663,1.428,5.152,2.925,7.397L19.132,52h-2.474c-0.801,0-1.554-0.312-2.122-0.879l-0.646-0.646L12.063,44.081z   M26.614,59.903l-12.636-2.527c-0.971-0.194-1.854-0.667-2.554-1.367l-7.905-7.904C3.185,47.771,3,47.323,3,46.799  c0-0.48,0.187-0.933,0.526-1.272c0.646-0.645,1.873-0.715,2.586-0.002l7.009,7.011C14.067,53.479,15.322,54,16.657,54h13.686  c1.335,0,2.591-0.521,3.536-1.465l0.684-0.684l1.488,4.465l1.897-0.633l-2.108-6.325l-7.918-5.279  C27.345,43.694,27,43.051,27,42.356V42.07c0-1.142,0.929-2.07,2.07-2.07c0.41,0,0.807,0.12,1.148,0.348l13.218,8.812  C44.261,49.709,45.22,50,46.211,50H51v10H27.594C27.266,60,26.936,59.968,26.614,59.903z M59,61v-4h-2v4h-4V46h4v9h2v-9h2l0.001,15  H59z"/>
</svg>
