<svg fill="#fff" xmlns="http://www.w3.org/2000/svg" xmlns:xlink="http://www.w3.org/1999/xlink" xmlns:svgjs="http://svgjs.com/svgjs" version="1.1" width="512" height="512" x="0" y="0" viewBox="0 0 496.176 496.176" style="enable-background:new 0 0 512 512" xml:space="preserve"><g>
<g xmlns="http://www.w3.org/2000/svg">
	<g>
		<g>
			<rect x="440.057" y="440" width="16" height="16" data-original="#000000" style=""/>
			<rect x="280.057" y="448" width="16" height="16"  data-original="#000000" style=""/>
			<path d="M495.491,440.337c-1.113-6.729-3.647-13.144-7.434-18.817V280c-0.058-36.212-22.275-68.699-56-81.888V168     c0-4.418-3.582-8-8-8h-44.688l24-24h52.688c2.122,0,4.156-0.844,5.656-2.344l32-32c1.5-1.5,2.344-3.534,2.344-5.656V56     c0-2.122-0.844-4.156-2.344-5.656l-32-32c-1.5-1.5-3.534-2.344-5.656-2.344h-32V8c0-4.418-3.582-8-8-8h-112     c-2.122,0-4.156,0.844-5.656,2.344l-64,64L76.217,224.528l-45.48,7.584v0.136c-1.638,0.221-3.164,0.955-4.36,2.096l-24,24     c-3.123,3.124-3.123,8.188,0,11.312l72,72c3.124,3.123,8.188,3.123,11.312,0l24-24c1.146-1.196,1.88-2.726,2.096-4.368h0.136     l7.584-45.472l158.208-158.16L339.369,48h76.688c4.418,0,8-3.582,8-8v-8h28.688l27.312,27.312v33.376L452.745,120h-52.688     c-2.122,0-4.156,0.844-5.656,2.344L356.745,160h-44.688c-4.418,0-8,3.582-8,8v30.112c-33.725,13.189-55.941,45.676-56,81.888v176     c0,22.091,17.909,40,40,40c22.091,0,40-17.909,40-40h72.72c4.325,26.154,29.034,43.85,55.188,39.525     C482.12,491.2,499.816,466.491,495.491,440.337z M80.057,324.688L19.369,264l12.688-12.688L92.745,312L80.057,324.688z      M106.401,258.344c-1.179,1.18-1.959,2.699-2.232,4.344l-5.448,32.664l-50.016-50.016l32.672-5.448     c1.642-0.275,3.158-1.055,4.336-2.232L240.057,83.312L260.745,104L106.401,258.344z M272.057,92.688L251.369,72l52.688-52.688     L324.745,40L272.057,92.688z M408.057,32h-68.688l-16-16h84.688V32z M320.057,176h96v17.528c-5.275-0.997-10.631-1.508-16-1.528     h-64c-5.369,0.02-10.724,0.531-16,1.528V176z M336.057,208h64c36.653,0.044,67.44,27.579,71.56,64h-207.12     C268.616,235.579,299.404,208.044,336.057,208z M264.057,288h208v16h-208V288z M472.057,320v32h-48v-32H472.057z M264.057,320     h144v16h-144V320z M264.057,352h144v8c0,4.418,3.582,8,8,8h56v38.496c-4.944-2.868-10.364-4.824-16-5.776V392     c0-4.418-3.582-8-8-8h-160c-4.418,0-8,3.582-8,8v24.8c-5.821,1.234-11.29,3.763-16,7.4V352z M288.057,480     c-13.255,0-24-10.745-24-24s10.745-24,24-24s24,10.745,24,24S301.312,480,288.057,480z M400.777,440h-76.112     c-5.212-11.913-15.875-20.561-28.608-23.2V400h144v0.72C419.957,404.155,404.212,419.9,400.777,440z M448.057,480     c-17.673,0-32-14.327-32-32c0-17.673,14.327-32,32-32c17.673,0,32,14.327,32,32C480.057,465.673,465.73,480,448.057,480z"  data-original="#000000" style=""/>
			<path d="M48.057,344c0-13.255-10.745-24-24-24s-24,10.745-24,24s10.745,24,24,24S48.057,357.255,48.057,344z M16.057,344     c0-4.418,3.582-8,8-8s8,3.582,8,8s-3.582,8-8,8S16.057,348.418,16.057,344z"  data-original="#000000" style=""/>
			<path d="M32.057,432c-17.673,0-32,14.327-32,32c0,17.673,14.327,32,32,32s32-14.327,32-32C64.057,446.327,49.73,432,32.057,432z      M32.057,480c-8.837,0-16-7.163-16-16s7.163-16,16-16s16,7.163,16,16S40.894,480,32.057,480z"  data-original="#000000" style=""/>
			<path d="M72.057,368c-13.255,0-24,10.745-24,24s10.745,24,24,24s24-10.745,24-24S85.312,368,72.057,368z M72.057,400     c-4.418,0-8-3.582-8-8s3.582-8,8-8s8,3.582,8,8S76.475,400,72.057,400z"  data-original="#000000" style=""/>
			<path d="M144.057,392c-13.255,0-24,10.745-24,24s10.745,24,24,24s24-10.745,24-24S157.312,392,144.057,392z M144.057,424     c-4.418,0-8-3.582-8-8s3.582-8,8-8s8,3.582,8,8S148.475,424,144.057,424z"  data-original="#000000" style=""/>
			<path d="M152.057,304c-17.673,0-32,14.327-32,32c0,17.673,14.327,32,32,32s32-14.327,32-32     C184.057,318.327,169.73,304,152.057,304z M152.057,352c-8.837,0-16-7.163-16-16s7.163-16,16-16s16,7.163,16,16     S160.894,352,152.057,352z"  data-original="#000000" style=""/>
			<rect x="80.057" y="432" width="16" height="16"  data-original="#000000" style=""/>
			<rect x="112.057" y="456" width="16" height="16"  data-original="#000000" style=""/>
		</g>
	</g>
</g>
</g></svg>

