<svg fill="#ffffff" version="1.1" id="Layer_1" xmlns="http://www.w3.org/2000/svg" xmlns:xlink="http://www.w3.org/1999/xlink" x="0px" y="0px"
	 viewBox="0 0 800 800" style="enable-background:new 0 0 800 800;" xml:space="preserve">
<path class="st0" d="M745.1,294H643.6c-0.7-21.7-3.2-68.1-11.8-115.2C615.4,88,584.7,41.9,540.7,41.9c-80.2,0-136.1,86.3-153,116.3
	c-5.8-0.5-11.6,0.4-17.2,2.6c-9.9,3.9-17.5,11.4-21.6,21.2L150.5,660.7H77.4c-42.2,0-76.5,34.3-76.5,76.5v20.9h366.2v-20.9
	c0-42.2-34.3-76.5-76.5-76.5h-48.8l178.8-449.6c5.7-14.3,2.3-30-7.5-40.6c15.9-27.3,64.3-100.6,127.7-100.6
	c37.3,0,55.8,71.2,63.5,113.6c8.1,44.3,10.6,89.1,11.3,110.5H512.9c-29.8,0-54,24.2-54,54v356c0,29.8,24.2,54,54,54h232.2
	c29.8,0,54-24.2,54-54V348C799.1,318.2,774.9,294,745.1,294z M290.6,688.7c24.3,0,44.5,18,48,41.4H29.4c3.5-23.4,23.7-41.4,48-41.4
	h61.5h91.8H290.6z M394.5,200.8L211.6,660.7h-30.9l194-468c1.1-2.7,3.2-4.8,6-5.8s5.7-1,8.3,0.2
	C394.2,189.5,396.7,195.5,394.5,200.8z M771.1,704.1c0,14.3-11.7,26-26,26H512.9c-14.3,0-26-11.7-26-26V348c0-14.3,11.7-26,26-26
	h232.2c14.3,0,26,11.7,26,26V704.1z M629,495.4c41.5,0,75.3-33.8,75.3-75.3s-33.8-75.3-75.3-75.3c-41.5,0-75.3,33.8-75.3,75.3
	S587.5,495.4,629,495.4z M629,372.8c26.1,0,47.3,21.2,47.3,47.3s-21.2,47.3-47.3,47.3s-47.3-21.2-47.3-47.3S602.9,372.8,629,372.8z
	 M528.6,688.7h200.8V584.5H528.6V688.7z M556.6,612.5h144.8v48.2H556.6V612.5z"/>
</svg>
